<?xml version="1.0" encoding="UTF-8" standalone="no"?>
<!DOCTYPE svg PUBLIC "-//W3C//DTD SVG 1.1//EN"
 "http://www.w3.org/Graphics/SVG/1.1/DTD/svg11.dtd">
<!-- Generated by graphviz version 2.38.0 (20140413.2041)
 -->
<!-- Title: G Pages: 1 -->
<svg width="652pt" height="479pt"
 viewBox="0.00 0.00 652.46 479.00" xmlns="http://www.w3.org/2000/svg" xmlns:xlink="http://www.w3.org/1999/xlink">
<g id="graph0" class="graph" transform="scale(1 1) rotate(0) translate(4 475)">
<title>G</title>
<polygon fill="white" stroke="none" points="-4,4 -4,-475 648.462,-475 648.462,4 -4,4"/>
<!-- 7 -->
<g id="node1" class="node"><title>7</title>
<ellipse fill="white" stroke="black" cx="37.4619" cy="-366" rx="27" ry="18"/>
<text text-anchor="middle" x="37.4619" y="-362.3" font-family="Times,serif" font-size="14.00">7</text>
</g>
<!-- 6 -->
<g id="node2" class="node"><title>6</title>
<ellipse fill="white" stroke="black" cx="103.462" cy="-279" rx="27" ry="18"/>
<text text-anchor="middle" x="103.462" y="-275.3" font-family="Times,serif" font-size="14.00">6</text>
</g>
<!-- 0 -->
<g id="node7" class="node"><title>0</title>
<ellipse fill="white" stroke="black" cx="177.462" cy="-192" rx="27" ry="18"/>
<text text-anchor="middle" x="177.462" y="-188.3" font-family="Times,serif" font-size="14.00">0</text>
</g>
<!-- 6&#45;&gt;0 -->
<g id="edge2" class="edge"><title>6&#45;&gt;0</title>
<path fill="none" stroke="black" d="M99.1472,-260.985C97.5233,-250.672 97.3318,-237.681 103.462,-228 112.049,-214.44 127.461,-206.032 142.006,-200.87"/>
<polygon fill="black" stroke="black" points="143.344,-204.119 151.842,-197.791 141.253,-197.438 143.344,-204.119"/>
<text text-anchor="middle" x="129.462" y="-231.8" font-family="Times,serif" font-size="14.00">0.609539</text>
</g>
<!-- 6&#45;&gt;0 -->
<g id="edge18" class="edge"><title>6&#45;&gt;0</title>
<path fill="none" stroke="black" d="M124.546,-267.493C134.936,-261.473 147.015,-253.101 155.462,-243 161.171,-236.173 165.651,-227.632 169.035,-219.551"/>
<polygon fill="black" stroke="black" points="172.358,-220.66 172.63,-210.069 165.812,-218.179 172.358,-220.66"/>
<text text-anchor="middle" x="189.462" y="-231.8" font-family="Times,serif" font-size="14.00">0.763442</text>
</g>
<!-- 4 -->
<g id="node3" class="node"><title>4</title>
<ellipse fill="white" stroke="black" cx="374.462" cy="-453" rx="27" ry="18"/>
<text text-anchor="middle" x="374.462" y="-449.3" font-family="Times,serif" font-size="14.00">4</text>
</g>
<!-- 4&#45;&gt;7 -->
<g id="edge5" class="edge"><title>4&#45;&gt;7</title>
<path fill="none" stroke="black" d="M347.562,-451.202C271.544,-448.676 59.2784,-439.638 38.4619,-417 32.8422,-410.889 31.2813,-402.366 31.5311,-394.087"/>
<polygon fill="black" stroke="black" points="35.034,-394.252 32.6467,-383.93 28.0758,-393.488 35.034,-394.252"/>
<text text-anchor="middle" x="64.4619" y="-405.8" font-family="Times,serif" font-size="14.00">0.895258</text>
</g>
<!-- 4&#45;&gt;6 -->
<g id="edge16" class="edge"><title>4&#45;&gt;6</title>
<path fill="none" stroke="black" d="M348.718,-447.52C296.546,-437.022 178.241,-405.751 118.462,-330 113.251,-323.397 109.847,-315.01 107.625,-307"/>
<polygon fill="black" stroke="black" points="111.03,-306.19 105.394,-297.219 104.205,-307.747 111.03,-306.19"/>
<text text-anchor="middle" x="200.962" y="-362.3" font-family="Times,serif" font-size="14.00">0.18961</text>
</g>
<!-- 4&#45;&gt;4 -->
<g id="edge14" class="edge"><title>4&#45;&gt;4</title>
<path fill="none" stroke="black" d="M398.994,-460.752C409.97,-461.49 419.462,-458.906 419.462,-453 419.462,-449.032 415.177,-446.563 409.036,-445.594"/>
<polygon fill="black" stroke="black" points="409.109,-442.095 398.994,-445.248 408.868,-449.091 409.109,-442.095"/>
<text text-anchor="middle" x="445.462" y="-449.3" font-family="Times,serif" font-size="14.00">0.985174</text>
</g>
<!-- 1 -->
<g id="node4" class="node"><title>1</title>
<ellipse fill="white" stroke="black" cx="311.462" cy="-105" rx="27" ry="18"/>
<text text-anchor="middle" x="311.462" y="-101.3" font-family="Times,serif" font-size="14.00">1</text>
</g>
<!-- 4&#45;&gt;1 -->
<g id="edge8" class="edge"><title>4&#45;&gt;1</title>
<path fill="none" stroke="black" d="M384.578,-436.151C387.881,-430.329 391.262,-423.555 393.462,-417 420.357,-336.877 433.308,-310.389 414.462,-228 404.888,-186.144 401.724,-172.421 372.462,-141 364.371,-132.312 353.626,-125.174 343.411,-119.663"/>
<polygon fill="black" stroke="black" points="344.775,-116.431 334.269,-115.061 341.627,-122.684 344.775,-116.431"/>
<text text-anchor="middle" x="448.462" y="-275.3" font-family="Times,serif" font-size="14.00">0.159989</text>
</g>
<!-- 4&#45;&gt;1 -->
<g id="edge19" class="edge"><title>4&#45;&gt;1</title>
<path fill="none" stroke="black" d="M400.419,-448.025C440.394,-440.265 512.462,-419.056 512.462,-367 512.462,-367 512.462,-367 512.462,-191 512.462,-120.734 406.974,-107.666 348.838,-105.799"/>
<polygon fill="black" stroke="black" points="348.645,-102.294 338.57,-105.57 348.489,-109.293 348.645,-102.294"/>
<text text-anchor="middle" x="538.462" y="-275.3" font-family="Times,serif" font-size="14.00">0.387473</text>
</g>
<!-- 3 -->
<g id="node5" class="node"><title>3</title>
<ellipse fill="white" stroke="black" cx="292.462" cy="-366" rx="27" ry="18"/>
<text text-anchor="middle" x="292.462" y="-362.3" font-family="Times,serif" font-size="14.00">3</text>
</g>
<!-- 4&#45;&gt;3 -->
<g id="edge11" class="edge"><title>4&#45;&gt;3</title>
<path fill="none" stroke="black" d="M360.179,-437.194C347.362,-423.909 328.376,-404.228 313.767,-389.084"/>
<polygon fill="black" stroke="black" points="316.043,-386.403 306.582,-381.636 311.006,-391.263 316.043,-386.403"/>
<text text-anchor="middle" x="363.462" y="-405.8" font-family="Times,serif" font-size="14.00">0.230656</text>
</g>
<!-- 2 -->
<g id="node6" class="node"><title>2</title>
<ellipse fill="white" stroke="black" cx="235.462" cy="-18" rx="27" ry="18"/>
<text text-anchor="middle" x="235.462" y="-14.3" font-family="Times,serif" font-size="14.00">2</text>
</g>
<!-- 4&#45;&gt;2 -->
<g id="edge23" class="edge"><title>4&#45;&gt;2</title>
<path fill="none" stroke="black" d="M400.325,-447.569C458.071,-436.942 592.462,-407.826 592.462,-367 592.462,-367 592.462,-367 592.462,-104 592.462,-38.8079 364.323,-23.5265 272.795,-20.0189"/>
<polygon fill="black" stroke="black" points="272.706,-16.5137 262.588,-19.6553 272.457,-23.5092 272.706,-16.5137"/>
<text text-anchor="middle" x="618.462" y="-231.8" font-family="Times,serif" font-size="14.00">0.152492</text>
</g>
<!-- 1&#45;&gt;2 -->
<g id="edge4" class="edge"><title>1&#45;&gt;2</title>
<path fill="none" stroke="black" d="M284.17,-104.005C257.692,-102.368 218.769,-95.2613 199.462,-69 191.939,-58.7674 199.139,-47.2709 209.022,-37.8841"/>
<polygon fill="black" stroke="black" points="211.559,-40.3208 216.904,-31.173 207.021,-34.9911 211.559,-40.3208"/>
<text text-anchor="middle" x="225.462" y="-57.8" font-family="Times,serif" font-size="14.00">0.543801</text>
</g>
<!-- 1&#45;&gt;2 -->
<g id="edge21" class="edge"><title>1&#45;&gt;2</title>
<path fill="none" stroke="black" d="M295.835,-90.1917C289.038,-83.9432 281.123,-76.328 274.462,-69 267.02,-60.8132 259.41,-51.3484 252.912,-42.8708"/>
<polygon fill="black" stroke="black" points="255.646,-40.6837 246.831,-34.8062 250.057,-44.898 255.646,-40.6837"/>
<text text-anchor="middle" x="300.462" y="-57.8" font-family="Times,serif" font-size="14.00">0.321425</text>
</g>
<!-- 1&#45;&gt;2 -->
<g id="edge22" class="edge"><title>1&#45;&gt;2</title>
<path fill="none" stroke="black" d="M322.598,-88.4948C328.63,-78.0334 333.542,-64.3093 326.462,-54 314.303,-36.296 291.842,-27.5436 272.278,-23.2183"/>
<polygon fill="black" stroke="black" points="272.86,-19.7662 262.382,-21.3361 271.552,-26.643 272.86,-19.7662"/>
<text text-anchor="middle" x="355.462" y="-57.8" font-family="Times,serif" font-size="14.00">0.334315</text>
</g>
<!-- 1&#45;&gt;0 -->
<g id="edge13" class="edge"><title>1&#45;&gt;0</title>
<path fill="none" stroke="black" d="M284.764,-108.703C247.674,-113.072 183.516,-123.062 169.462,-141 164.22,-147.691 164.079,-156.46 165.933,-164.783"/>
<polygon fill="black" stroke="black" points="162.659,-166.039 168.976,-174.544 169.341,-163.956 162.659,-166.039"/>
<text text-anchor="middle" x="191.962" y="-144.8" font-family="Times,serif" font-size="14.00">0.25991</text>
</g>
<!-- 3&#45;&gt;6 -->
<g id="edge17" class="edge"><title>3&#45;&gt;6</title>
<path fill="none" stroke="black" d="M265.386,-364.622C232.689,-362.944 177.26,-356.077 138.462,-330 129.228,-323.794 121.681,-314.267 115.99,-305.188"/>
<polygon fill="black" stroke="black" points="118.95,-303.314 110.925,-296.397 112.885,-306.809 118.95,-303.314"/>
<text text-anchor="middle" x="164.462" y="-318.8" font-family="Times,serif" font-size="14.00">0.884764</text>
</g>
<!-- 3&#45;&gt;1 -->
<g id="edge24" class="edge"><title>3&#45;&gt;1</title>
<path fill="none" stroke="black" d="M308.198,-351.35C321.611,-338.713 340.153,-318.653 349.462,-297 364.835,-261.243 357.236,-248.858 359.462,-210 361.219,-179.332 370.451,-167.813 355.462,-141 351.664,-134.205 345.962,-128.247 339.911,-123.264"/>
<polygon fill="black" stroke="black" points="341.705,-120.237 331.59,-117.086 337.532,-125.858 341.705,-120.237"/>
<text text-anchor="middle" x="384.462" y="-231.8" font-family="Times,serif" font-size="14.00">0.709949</text>
</g>
<!-- 3&#45;&gt;3 -->
<g id="edge7" class="edge"><title>3&#45;&gt;3</title>
<path fill="none" stroke="black" d="M316.994,-373.752C327.97,-374.49 337.462,-371.906 337.462,-366 337.462,-362.032 333.177,-359.563 327.036,-358.594"/>
<polygon fill="black" stroke="black" points="327.109,-355.095 316.994,-358.248 326.868,-362.091 327.109,-355.095"/>
<text text-anchor="middle" x="363.462" y="-362.3" font-family="Times,serif" font-size="14.00">0.616266</text>
</g>
<!-- 3&#45;&gt;0 -->
<g id="edge6" class="edge"><title>3&#45;&gt;0</title>
<path fill="none" stroke="black" d="M292.837,-347.672C292.528,-319.337 287.934,-262.772 258.462,-228 246.896,-214.355 229.03,-205.876 213.016,-200.689"/>
<polygon fill="black" stroke="black" points="213.938,-197.312 203.358,-197.868 211.976,-204.031 213.938,-197.312"/>
<text text-anchor="middle" x="316.462" y="-275.3" font-family="Times,serif" font-size="14.00">0.0429224</text>
</g>
<!-- 3&#45;&gt;0 -->
<g id="edge10" class="edge"><title>3&#45;&gt;0</title>
<path fill="none" stroke="black" d="M273.372,-353.117C256.27,-341.262 232.27,-321.334 221.462,-297 209.009,-268.962 232.876,-255.592 219.462,-228 216.283,-221.462 211.247,-215.703 205.749,-210.842"/>
<polygon fill="black" stroke="black" points="207.551,-207.807 197.527,-204.377 203.225,-213.309 207.551,-207.807"/>
<text text-anchor="middle" x="247.462" y="-275.3" font-family="Times,serif" font-size="14.00">0.747593</text>
</g>
<!-- 2&#45;&gt;6 -->
<g id="edge1" class="edge"><title>2&#45;&gt;6</title>
<path fill="none" stroke="black" d="M208.958,-21.5156C165.133,-26.1029 79.9616,-36.9552 55.4619,-54 18.2952,-79.8575 14.6946,-97.4072 2.46191,-141 -11.5587,-190.964 41.1879,-236.85 75.6947,-260.739"/>
<polygon fill="black" stroke="black" points="73.7689,-263.662 84.0228,-266.328 77.6695,-257.849 73.7689,-263.662"/>
<text text-anchor="middle" x="24.9619" y="-144.8" font-family="Times,serif" font-size="14.00">0.46909</text>
</g>
<!-- 2&#45;&gt;6 -->
<g id="edge15" class="edge"><title>2&#45;&gt;6</title>
<path fill="none" stroke="black" d="M216.439,-30.8777C187.545,-50.0758 133.337,-90.8835 108.462,-141 101.499,-155.029 89.9188,-207.09 94.4619,-243 94.8045,-245.708 95.2905,-248.506 95.8613,-251.285"/>
<polygon fill="black" stroke="black" points="92.4719,-252.161 98.1955,-261.077 99.2811,-250.538 92.4719,-252.161"/>
<text text-anchor="middle" x="134.462" y="-144.8" font-family="Times,serif" font-size="14.00">0.996164</text>
</g>
<!-- 0&#45;&gt;1 -->
<g id="edge12" class="edge"><title>0&#45;&gt;1</title>
<path fill="none" stroke="black" d="M204.535,-188.848C229.364,-185.546 265.772,-177.183 289.462,-156 296.372,-149.821 301.213,-141.071 304.557,-132.614"/>
<polygon fill="black" stroke="black" points="307.923,-133.587 307.83,-122.992 301.296,-131.333 307.923,-133.587"/>
<text text-anchor="middle" x="325.462" y="-144.8" font-family="Times,serif" font-size="14.00">0.434725</text>
</g>
<!-- 0&#45;&gt;1 -->
<g id="edge20" class="edge"><title>0&#45;&gt;1</title>
<path fill="none" stroke="black" d="M192.258,-176.848C205.76,-164.111 224.878,-146.567 233.462,-141 247.425,-131.945 264.12,-124.108 278.475,-118.159"/>
<polygon fill="black" stroke="black" points="279.997,-121.319 287.977,-114.35 277.392,-114.822 279.997,-121.319"/>
<text text-anchor="middle" x="259.462" y="-144.8" font-family="Times,serif" font-size="14.00">0.309309</text>
</g>
<!-- 0&#45;&gt;0 -->
<g id="edge3" class="edge"><title>0&#45;&gt;0</title>
<path fill="none" stroke="black" d="M204.257,-195.929C214.242,-196.058 222.462,-194.748 222.462,-192 222.462,-190.282 219.251,-189.127 214.405,-188.533"/>
<polygon fill="black" stroke="black" points="214.406,-185.03 204.257,-188.071 214.087,-192.022 214.406,-185.03"/>
<text text-anchor="middle" x="248.462" y="-188.3" font-family="Times,serif" font-size="14.00">0.465637</text>
</g>
<!-- 0&#45;&gt;0 -->
<g id="edge9" class="edge"><title>0&#45;&gt;0</title>
<path fill="none" stroke="black" d="M202.904,-198.086C233.037,-201.781 274.462,-199.752 274.462,-192 274.462,-185.096 241.603,-182.731 213.128,-184.907"/>
<polygon fill="black" stroke="black" points="212.513,-181.45 202.904,-185.914 213.199,-188.417 212.513,-181.45"/>
<text text-anchor="middle" x="303.462" y="-188.3" font-family="Times,serif" font-size="14.00">0.0743276</text>
</g>
</g>
</svg>
